<mxfile host="app.diagrams.net" modified="2021-11-11T11:00:36.272Z" agent="5.0 (Macintosh; Intel Mac OS X 10_15_7) AppleWebKit/537.36 (KHTML, like Gecko) Chrome/94.0.4606.71 Safari/537.36" etag="ZC-_uCspi_Oau74KrsG_" version="15.5.0" type="github">
  <diagram id="jOUaDD1V06s2MG4hvzng" name="Page-1">
    <mxGraphModel dx="1158" dy="622" grid="1" gridSize="10" guides="1" tooltips="1" connect="1" arrows="1" fold="1" page="1" pageScale="1" pageWidth="850" pageHeight="1100" math="0" shadow="0">
      <root>
        <mxCell id="0" />
        <mxCell id="1" parent="0" />
        <mxCell id="tFiOPGivAoEFvI0gF9jW-3" value="" style="edgeStyle=orthogonalEdgeStyle;rounded=0;orthogonalLoop=1;jettySize=auto;html=1;" edge="1" parent="1" source="tFiOPGivAoEFvI0gF9jW-1" target="tFiOPGivAoEFvI0gF9jW-2">
          <mxGeometry relative="1" as="geometry" />
        </mxCell>
        <mxCell id="tFiOPGivAoEFvI0gF9jW-1" value="Cronjob / day" style="rounded=0;whiteSpace=wrap;html=1;" vertex="1" parent="1">
          <mxGeometry x="305" y="120" width="120" height="60" as="geometry" />
        </mxCell>
        <mxCell id="tFiOPGivAoEFvI0gF9jW-8" value="" style="edgeStyle=orthogonalEdgeStyle;rounded=0;orthogonalLoop=1;jettySize=auto;html=1;" edge="1" parent="1" source="tFiOPGivAoEFvI0gF9jW-2" target="tFiOPGivAoEFvI0gF9jW-7">
          <mxGeometry relative="1" as="geometry" />
        </mxCell>
        <mxCell id="tFiOPGivAoEFvI0gF9jW-2" value="Pull 3d 统计表" style="whiteSpace=wrap;html=1;rounded=0;" vertex="1" parent="1">
          <mxGeometry x="305" y="220" width="120" height="60" as="geometry" />
        </mxCell>
        <mxCell id="tFiOPGivAoEFvI0gF9jW-5" style="edgeStyle=orthogonalEdgeStyle;rounded=0;orthogonalLoop=1;jettySize=auto;html=1;exitX=0;exitY=0.5;exitDx=0;exitDy=0;" edge="1" parent="1" source="tFiOPGivAoEFvI0gF9jW-4" target="tFiOPGivAoEFvI0gF9jW-2">
          <mxGeometry relative="1" as="geometry" />
        </mxCell>
        <mxCell id="tFiOPGivAoEFvI0gF9jW-4" value="MySQL" style="rounded=0;whiteSpace=wrap;html=1;" vertex="1" parent="1">
          <mxGeometry x="520" y="220" width="120" height="60" as="geometry" />
        </mxCell>
        <mxCell id="tFiOPGivAoEFvI0gF9jW-7" value="遍历记录提交OMS" style="whiteSpace=wrap;html=1;rounded=0;" vertex="1" parent="1">
          <mxGeometry x="305" y="330" width="120" height="60" as="geometry" />
        </mxCell>
      </root>
    </mxGraphModel>
  </diagram>
</mxfile>
